<svg id="Layer_1" data-name="Layer 1" xmlns="http://www.w3.org/2000/svg" viewBox="0 0 360 252"><defs><style>.cls-1{fill:#f4792a;}</style></defs><title>wordmark_3L_new RGB</title><path class="cls-1" d="M72.44,163.56l-.67.25c-.31-.72-.84-1-2.1-1H65.31v14.37c0,.86.45,1.14,1.12,1.14v.78H60.14v-.78a1,1,0,0,0,1.12-1.14V162.81H57c-1.34,0-1.82.25-2.16,1l-.72-.25.89-4.16a8.84,8.84,0,0,0,1.68.14H70a10.09,10.09,0,0,0,1.5-.14Z"/><path class="cls-1" d="M93.38,179.1H87.15v-.78c.67,0,1.06-.33,1.06-1.12v-6.85H80.38v6.85c0,.76.37,1.12,1.06,1.12v.78h-6.2v-.78c.75,0,1.06-.33,1.06-1.12V161.35c0-.78-.39-1.06-1.09-1.06v-.75h6.23v.75c-.67,0-1.06.25-1.06,1.06v5.73h7.83v-5.73c0-.81-.39-1.06-1.06-1.06v-.75h6.23v.75c-.73,0-1.06.25-1.06,1.06V177.2c0,.79.39,1.12,1.06,1.12Z"/><path class="cls-1" d="M111.7,174.86l-1,4.38a12.35,12.35,0,0,0-1.59-.14H96.85v-.78c.7,0,1.06-.39,1.06-1.14V161.47c0-.76-.39-1.18-1.06-1.18v-.75h12.3a10.6,10.6,0,0,0,1.51-.14l.89,4.19-.64.22a1.59,1.59,0,0,0-1.7-1H102v3.86h6.52c.72,0,1-.42,1-.9h.73v5.12h-.73c0-.59-.28-.95-1-.95H102v5.87h7.13a1.65,1.65,0,0,0,1.85-1.18Z"/><path class="cls-1" d="M140.1,160.29c-.64,0-1.06.34-1.06,1.15v12.77a4.69,4.69,0,0,0,.33,1.9c-2.57,2-5.2,3.41-8.13,3.41a11.88,11.88,0,0,1-8.28-3.35,5.5,5.5,0,0,0,.31-1.9V161.58c0-.92-.39-1.29-1.09-1.29v-.75h6.24v.75c-.7,0-1.09.34-1.09,1.29V173.4c0,1.6,1.39,2.69,4,2.69,2.44,0,3.86-1.29,3.86-2.63v-12c0-.86-.39-1.2-1.06-1.2v-.75h6Z"/><path class="cls-1" d="M161.6,160.29a1,1,0,0,0-1.09,1V179.1h-3.13a4.62,4.62,0,0,0-.67-1.31L148.35,166h-.06V177.2a1,1,0,0,0,1.09,1.12v.78h-5.87v-.78c.7,0,1.07-.31,1.07-1.12V161.35a1,1,0,0,0-1.07-1.06v-.75h5.06a4.75,4.75,0,0,0,.7,1.34l7.47,10.4h0v-10c0-.59-.25-1-1.06-1v-.75h5.87Z"/><path class="cls-1" d="M171.3,179.1h-6.23v-.78c.64,0,1.06-.31,1.06-1.12V161.41c0-.81-.39-1.12-1.06-1.12v-.75h6.23v.75a1,1,0,0,0-1.06,1.12V177.2c0,.79.39,1.12,1.06,1.12Z"/><path class="cls-1" d="M193.17,160.29c-.54,0-1,.42-1.26,1.29l-5.2,15.09a3.9,3.9,0,0,0-.28,1.15.45.45,0,0,0,.47.5v.78h-6.54v-.78a.46.46,0,0,0,.53-.47,7,7,0,0,0-.44-1.6l-5.09-14.37c-.36-1-.7-1.59-1.32-1.59v-.75h6.27v.75c-.48,0-.76.28-.76.62a3.79,3.79,0,0,0,.17.84l4.22,13H184l3.86-12.8a4.17,4.17,0,0,0,.19-1c0-.36-.19-.64-.73-.64v-.75h5.85Z"/><path class="cls-1" d="M210.75,174.86l-1,4.38a12.35,12.35,0,0,0-1.6-.14H195.91v-.78c.7,0,1.06-.39,1.06-1.14V161.47c0-.76-.39-1.18-1.06-1.18v-.75h12.3a10.73,10.73,0,0,0,1.51-.14l.89,4.19-.64.22a1.6,1.6,0,0,0-1.71-1h-7.18v3.86h6.51c.73,0,1-.42,1-.9h.73v5.12h-.73c0-.59-.28-.95-1-.95h-6.51v5.87h7.13a1.63,1.63,0,0,0,1.84-1.18Z"/><path class="cls-1" d="M230.13,179.1h-5.37a44.73,44.73,0,0,1-3-7.32l-.86,0c-.67,0-1.37,0-2,0v5.42c0,.81.39,1.12,1.09,1.12v.78h-6.15v-.78a1,1,0,0,0,1.06-1.12V161.35a1,1,0,0,0-1.06-1.06v-.75c2-.09,5.45-.23,6.93-.23,5.62,0,8.89,1.49,8.89,6a5.93,5.93,0,0,1-4.08,5.73,36.12,36.12,0,0,0,3.13,6.56,1.69,1.69,0,0,0,1.51.73ZM221,162.58c-.65,0-1.49.06-2.21.09v5.81c.58,0,1.73.06,2.43.06,3,0,4.28-1.26,4.28-3.11S224.45,162.58,221,162.58Z"/><path class="cls-1" d="M239.69,179.58a40.18,40.18,0,0,1-4.56-.48,3.86,3.86,0,0,0-1.51.37l-.83-5.7.92-.23c.5,1.26,1.9,2.74,5.53,2.77,3.11,0,4-1.18,4-2.54,0-1-.84-1.82-2.35-2.41l-3.16-1.23c-2.37-.92-4.33-2.46-4.33-5.56,0-3.77,3.27-5.48,6.93-5.48a35.88,35.88,0,0,1,4,.42,3.32,3.32,0,0,0,1.34-.22l.67,4.92-1,.19c-.72-1.14-2.15-2.1-4.78-2.1-2.46,0-3.07,1.07-3.07,2s.58,1.48,2.12,2.07l3.36,1.28c2.37.93,4.41,2.58,4.41,5.87C247.46,177.32,244.58,179.58,239.69,179.58Z"/><path class="cls-1" d="M256.86,179.1h-6.24v-.78c.65,0,1.07-.31,1.07-1.12V161.41c0-.81-.4-1.12-1.07-1.12v-.75h6.24v.75a1,1,0,0,0-1.06,1.12V177.2c0,.79.39,1.12,1.06,1.12Z"/><path class="cls-1" d="M277.91,163.56l-.67.25c-.31-.72-.84-1-2.1-1h-4.36v14.37c0,.86.45,1.14,1.12,1.14v.78h-6.29v-.78a1,1,0,0,0,1.12-1.14V162.81h-4.22c-1.35,0-1.82.25-2.16,1l-.72-.25.89-4.16a8.84,8.84,0,0,0,1.68.14h13.3a10.1,10.1,0,0,0,1.51-.14Z"/><path class="cls-1" d="M298.12,160.29c-.64,0-1.09.37-1.62,1.29l-5.45,9.47v6.15c0,.81.39,1.12,1.06,1.12v.78h-6.2v-.78c.7,0,1.06-.33,1.06-1.12v-6.15l-5.4-9.42c-.55-1-.92-1.34-1.62-1.34v-.75h6.52v.75a.5.5,0,0,0-.56.51,1.57,1.57,0,0,0,.19.5l3.11,6h.05l3.08-5.79a1.94,1.94,0,0,0,.25-.69c0-.26-.09-.51-.53-.51v-.75h6.06Z"/><path class="cls-1" d="M34.18,209.58c-5.37,0-9.89-3.66-9.89-10.26s4.61-10.23,9.89-10.23c5.45,0,10,3.61,10,10.23C44.13,205.64,39.88,209.58,34.18,209.58Zm0-17.08c-3,0-5.59,2.32-5.59,6.82s2.54,6.88,5.59,6.88,5.68-2.38,5.68-6.85S37.26,192.5,34.18,192.5Z"/><path class="cls-1" d="M62.17,193.53l-.65.23a1.81,1.81,0,0,0-1.9-.95h-7v4.11h6.51c.76,0,1-.42,1-.9h.73v5.12h-.73c0-.53-.28-.95-1.06-.95H52.66v6.87c0,.9.45,1.26,1.12,1.26v.78H47.49v-.78c.64,0,1.06-.42,1.06-1.26V191.47a1,1,0,0,0-1.06-1.18v-.75h12a11.72,11.72,0,0,0,1.82-.14Z"/><path class="cls-1" d="M90.29,193.56l-.67.25c-.31-.72-.84-1-2.1-1H83.16v14.37c0,.86.45,1.14,1.12,1.14v.78H78v-.78a1,1,0,0,0,1.12-1.14V192.81H74.89c-1.34,0-1.82.25-2.15,1l-.73-.25.89-4.16a8.92,8.92,0,0,0,1.68.14H87.89a10.34,10.34,0,0,0,1.51-.14Z"/><path class="cls-1" d="M107.91,204.86l-1,4.38a12.18,12.18,0,0,0-1.59-.14H93.06v-.78c.7,0,1.06-.39,1.06-1.14V191.47c0-.76-.39-1.18-1.06-1.18v-.75h12.3a10.6,10.6,0,0,0,1.51-.14l.9,4.19-.65.22a1.59,1.59,0,0,0-1.7-1H98.23v3.86h6.52c.72,0,1-.42,1-.9h.73v5.12h-.73c0-.59-.28-.95-1-.95H98.23v5.87h7.13a1.64,1.64,0,0,0,1.85-1.18Z"/><path class="cls-1" d="M127.84,209.1H121v-.78c.47,0,.64-.19.64-.45a1.2,1.2,0,0,0-.25-.61l-2.65-4.72h-.06l-2.57,4.75a1.31,1.31,0,0,0-.23.56c0,.25.14.47.56.47v.78h-6.23v-.78c.73,0,1.17-.22,1.73-1.17l4.7-7.86-4.7-7.63c-.64-1-1-1.37-1.76-1.37v-.75h6.71v.75c-.45,0-.59.17-.59.42a2.16,2.16,0,0,0,.31.7l2.77,4.78h0l2.63-4.89a1.7,1.7,0,0,0,.2-.59c0-.25-.17-.42-.56-.42v-.75h6.12v.75c-.73,0-1.12.25-1.73,1.29l-4.7,7.88,4.75,7.8a1.75,1.75,0,0,0,1.68,1.06Z"/><path class="cls-1" d="M149.45,209.1h-6.23v-.78c.56,0,.73-.25.73-.61a2.21,2.21,0,0,0-.15-.7l-.39-1.15a20.75,20.75,0,0,1-3.77.34,24.61,24.61,0,0,1-3.75-.34l-.39,1.29a3.79,3.79,0,0,0-.08.64c0,.31.2.45.75.53v.78h-5.84v-.78c.48,0,.9-.22,1.29-1.34l5.25-15.32a3.27,3.27,0,0,0,.2-.78c0-.31-.11-.59-.48-.59v-.75h6.52v.75a.46.46,0,0,0-.53.48,3.78,3.78,0,0,0,.25.92l5.39,15.37c.34.93.76,1.26,1.23,1.26Zm-9.89-15.2h-.06l-2.6,8.75a15.82,15.82,0,0,0,2.8.28,14.21,14.21,0,0,0,2.68-.28Z"/><path class="cls-1" d="M158.79,209.58a39.62,39.62,0,0,1-4.55-.48,3.77,3.77,0,0,0-1.51.37l-.84-5.7.92-.23c.5,1.26,1.9,2.74,5.54,2.77,3.1,0,4-1.18,4-2.54,0-1-.84-1.82-2.35-2.41l-3.16-1.23c-2.37-.92-4.33-2.46-4.33-5.56,0-3.77,3.27-5.48,6.93-5.48a35.88,35.88,0,0,1,4,.42,3.32,3.32,0,0,0,1.34-.22l.67,4.92-.95.19c-.73-1.14-2.15-2.1-4.78-2.1-2.46,0-3.07,1.07-3.07,2s.58,1.48,2.12,2.07l3.36,1.28c2.37.93,4.41,2.58,4.41,5.87C166.56,207.32,163.68,209.58,158.79,209.58Z"/><path class="cls-1" d="M195.67,209.1h-6.24v-.78c.56,0,.73-.25.73-.61a2.17,2.17,0,0,0-.14-.7l-.39-1.15a20.84,20.84,0,0,1-3.77.34,24.49,24.49,0,0,1-3.75-.34l-.39,1.29a3.11,3.11,0,0,0-.09.64c0,.31.2.45.76.53v.78h-5.84v-.78c.47,0,.89-.22,1.28-1.34l5.26-15.32a3.13,3.13,0,0,0,.19-.78c0-.31-.11-.59-.47-.59v-.75h6.51v.75a.47.47,0,0,0-.53.48,3.78,3.78,0,0,0,.25.92l5.4,15.37c.33.93.75,1.26,1.23,1.26Zm-9.9-15.2h-.05l-2.6,8.75a15.61,15.61,0,0,0,2.79.28,14.32,14.32,0,0,0,2.69-.28Z"/><path class="cls-1" d="M212.92,193.56l-.67.25c-.31-.72-.84-1-2.1-1h-4.36v14.37c0,.86.45,1.14,1.12,1.14v.78h-6.29v-.78a1,1,0,0,0,1.12-1.14V192.81h-4.22c-1.35,0-1.82.25-2.16,1l-.72-.25.89-4.16a8.84,8.84,0,0,0,1.68.14h13.3a10.1,10.1,0,0,0,1.51-.14Z"/><path class="cls-1" d="M230.51,209.33c-2.52,0-5.59-.11-7.27-.23v-.78a1,1,0,0,0,1.06-1V191.41c0-.9-.39-1.12-1.06-1.12v-.75c1.87-.09,4.44-.2,7.49-.2,7.38,0,10.37,3.47,10.37,9.76C241.1,204.86,238.33,209.33,230.51,209.33Zm0-16.72c-.84,0-1.57,0-2.1.06V206c.53,0,1.34.06,2.1.06,4.19,0,6.45-2.74,6.45-7S234.53,192.61,230.51,192.61Z"/><path class="cls-1" d="M262.07,209.1h-6.23v-.78c.55,0,.72-.25.72-.61a2.17,2.17,0,0,0-.14-.7l-.39-1.15a20.75,20.75,0,0,1-3.77.34,24.61,24.61,0,0,1-3.75-.34l-.39,1.29a3,3,0,0,0-.08.64c0,.31.19.45.75.53v.78H243v-.78c.47,0,.89-.22,1.29-1.34l5.25-15.32a3.27,3.27,0,0,0,.2-.78c0-.31-.12-.59-.48-.59v-.75h6.51v.75a.47.47,0,0,0-.53.48,3.48,3.48,0,0,0,.26.92l5.39,15.37c.34.93.76,1.26,1.23,1.26Zm-9.9-15.2h0l-2.6,8.75a15.61,15.61,0,0,0,2.79.28,14.23,14.23,0,0,0,2.69-.28Z"/><path class="cls-1" d="M279.66,204.91l-1,4.33a14.69,14.69,0,0,0-1.82-.14h-12v-.78c.7,0,1.07-.33,1.07-1.14V191.41a1,1,0,0,0-1.07-1.12v-.75h6.29v.75a1.08,1.08,0,0,0-1.12,1.2v14.32h7.22a1.67,1.67,0,0,0,1.79-1.09Z"/><path class="cls-1" d="M297.49,204.91l-1,4.33a14.86,14.86,0,0,0-1.82-.14h-12v-.78c.7,0,1.06-.33,1.06-1.14V191.41a1,1,0,0,0-1.06-1.12v-.75h6.29v.75a1.08,1.08,0,0,0-1.12,1.2v14.32H295a1.66,1.66,0,0,0,1.78-1.09Z"/><path class="cls-1" d="M318.6,209.1h-6.23v-.78c.56,0,.73-.25.73-.61a2.48,2.48,0,0,0-.14-.7l-.4-1.15a20.75,20.75,0,0,1-3.77.34,24.61,24.61,0,0,1-3.75-.34l-.39,1.29a3.79,3.79,0,0,0-.08.64c0,.31.2.45.75.53v.78h-5.84v-.78c.48,0,.9-.22,1.29-1.34L306,191.66a2.84,2.84,0,0,0,.2-.78c0-.31-.11-.59-.48-.59v-.75h6.52v.75a.47.47,0,0,0-.53.48,3.78,3.78,0,0,0,.25.92l5.39,15.37c.34.93.76,1.26,1.23,1.26Zm-9.89-15.2h-.06l-2.6,8.75a15.82,15.82,0,0,0,2.8.28,14.21,14.21,0,0,0,2.68-.28Z"/><path class="cls-1" d="M327.94,209.58a39.62,39.62,0,0,1-4.55-.48,3.77,3.77,0,0,0-1.51.37l-.84-5.7.92-.23c.5,1.26,1.9,2.74,5.54,2.77,3.1,0,4-1.18,4-2.54,0-1-.84-1.82-2.35-2.41L326,200.13c-2.37-.92-4.33-2.46-4.33-5.56,0-3.77,3.27-5.48,6.94-5.48a35.91,35.91,0,0,1,4,.42,3.32,3.32,0,0,0,1.34-.22l.67,4.92-.95.19c-.72-1.14-2.15-2.1-4.78-2.1-2.46,0-3.07,1.07-3.07,2s.59,1.48,2.12,2.07l3.36,1.28c2.37.93,4.41,2.58,4.41,5.87C335.71,207.32,332.84,209.58,327.94,209.58Z"/><path class="cls-1" d="M222.62,55.35l-2.08.56c-1-2.07-2.36-3.2-5.66-3.2H183.79V137c0,3.4,1.51,4.62,3.59,4.62l.41,1.7H167.62l.41-1.7c2,0,3.68-1.32,3.68-4.62V52.71h-31c-3.21,0-5,1.32-5.76,3.2l-2.07-.56,3-12.93a17.59,17.59,0,0,0,5,.47h74.54a16.41,16.41,0,0,0,4.15-.47Zm-11.16,75.91c-8.6,0-19.33-.31-22-.61v-1.92a3.2,3.2,0,0,0,3.42-3.23V65.32A3.17,3.17,0,0,0,189.44,62V60c3.31-.3,14.35-.71,21.82-.71,16,0,24.56,8.48,24.56,34C235.82,119.44,228.67,131.26,211.46,131.26Zm2.18-61.6c-1.45,0-7.52,0-8.14.1v51.1c.62.1,6.79.1,7.52.1,6.63,0,9.74-7.78,9.74-27.67C222.76,74.61,218.82,69.66,213.64,69.66Zm-47.51-7.58v-2s-8.18.06-14.72,0c0,0-1.42,1.65-1.42,5.71v50.29c0,4-2.91,6-6.33,6-3.21,0-6.21-1.62-6.21-6V65.82c0-2.52,1.45-3.83,3.42-3.83V60.07H127a8.18,8.18,0,0,0-2.06,5.75v51.5a15.63,15.63,0,0,1-.73,5.86,24.81,24.81,0,0,0,19.48,9.19,224.56,224.56,0,0,0,22.47-1.62v-1.92a3.2,3.2,0,0,1-3.41-3.23V65.41A3.17,3.17,0,0,1,166.13,62.08Z"/></svg>