<svg id="Layer_1" data-name="Layer 1" xmlns="http://www.w3.org/2000/svg" viewBox="0 0 360 144"><defs><style>.cls-1{fill:#f4792a;}</style></defs><title>wordmark_2L_new RGB</title><path class="cls-1" d="M23.59,104.82l-.4.14c-.18-.43-.49-.59-1.24-.59H19.37v8.5c0,.51.26.68.66.68V114H16.31v-.46c.4,0,.66-.18.66-.68v-8.5h-2.5c-.79,0-1.07.15-1.27.59l-.43-.14.53-2.47a5,5,0,0,0,1,.08h7.88a5.76,5.76,0,0,0,.89-.08Z"/><path class="cls-1" d="M36,114H32.28v-.46c.4,0,.63-.2.63-.66v-4.06H28.28v4.06a.57.57,0,0,0,.63.66V114H25.24v-.46c.44,0,.63-.2.63-.66v-9.38c0-.47-.24-.63-.65-.63v-.45h3.69v.45c-.4,0-.63.15-.63.63v3.39h4.63v-3.39c0-.48-.23-.63-.63-.63v-.45H36v.45c-.43,0-.63.15-.63.63v9.38a.57.57,0,0,0,.63.66Z"/><path class="cls-1" d="M46.8,111.5l-.59,2.59a7.36,7.36,0,0,0-1-.08H38v-.46c.41,0,.63-.23.63-.68v-9.3c0-.44-.23-.69-.63-.69v-.45H45.3a5.87,5.87,0,0,0,.89-.08l.53,2.48-.38.13a1,1,0,0,0-1-.59H41.08v2.28h3.85c.43,0,.61-.25.61-.53H46v3h-.43c0-.35-.16-.56-.61-.56H41.08v3.47H45.3a1,1,0,0,0,1.09-.69Z"/><path class="cls-1" d="M63.6,102.88c-.38,0-.63.2-.63.68v7.56a2.73,2.73,0,0,0,.2,1.12,7.91,7.91,0,0,1-4.81,2,7,7,0,0,1-4.9-2,3.41,3.41,0,0,0,.18-1.13v-7.51c0-.55-.23-.76-.64-.76v-.45h3.69v.45c-.42,0-.65.2-.65.76v7c0,.94.83,1.59,2.37,1.59s2.28-.77,2.28-1.56v-7.08c0-.51-.23-.71-.63-.71v-.45H63.6Z"/><path class="cls-1" d="M76.31,102.88a.59.59,0,0,0-.64.61V114H73.82a2.86,2.86,0,0,0-.4-.78l-5-7h0v6.62a.59.59,0,0,0,.65.66V114H65.61v-.46c.42,0,.63-.18.63-.66v-9.38a.58.58,0,0,0-.63-.63v-.45h3a2.53,2.53,0,0,0,.41.8l4.42,6.15h0v-5.92c0-.35-.15-.58-.63-.58v-.45h3.47Z"/><path class="cls-1" d="M82.05,114H78.36v-.46c.38,0,.63-.18.63-.66v-9.35c0-.48-.23-.66-.63-.66v-.45h3.69v.45a.57.57,0,0,0-.63.66v9.35c0,.46.23.66.63.66Z"/><path class="cls-1" d="M95,102.88c-.31,0-.56.25-.74.76l-3.08,8.93a2.37,2.37,0,0,0-.17.68.28.28,0,0,0,.29.3V114H87.4v-.46a.28.28,0,0,0,.32-.28,4.39,4.39,0,0,0-.27-1l-3-8.5c-.21-.59-.41-.94-.77-.94v-.45h3.7v.45c-.28,0-.45.16-.45.36a2,2,0,0,0,.1.5l2.5,7.69h0l2.29-7.57a2.32,2.32,0,0,0,.11-.6c0-.22-.11-.38-.43-.38v-.45H95Z"/><path class="cls-1" d="M105.38,111.5l-.6,2.59a7.18,7.18,0,0,0-.94-.08H96.6v-.46c.41,0,.62-.23.62-.68v-9.3c0-.44-.23-.69-.62-.69v-.45h7.27a6,6,0,0,0,.9-.08l.53,2.48-.38.13a1,1,0,0,0-1-.59H99.66v2.28h3.85c.43,0,.61-.25.61-.53h.43v3h-.43c0-.35-.16-.56-.61-.56H99.66v3.47h4.21a1,1,0,0,0,1.09-.69Z"/><path class="cls-1" d="M116.84,114h-3.18a25.4,25.4,0,0,1-1.8-4.33h-1.72v3.21c0,.48.23.66.64.66V114h-3.64v-.46a.59.59,0,0,0,.63-.66v-9.38a.56.56,0,0,0-.63-.63v-.45c1.18-.05,3.23-.13,4.11-.13,3.32,0,5.26.88,5.26,3.54a3.5,3.5,0,0,1-2.42,3.39,22.29,22.29,0,0,0,1.85,3.89,1,1,0,0,0,.9.43Zm-5.4-9.77c-.38,0-.87,0-1.3.05v3.44l1.44,0c1.75,0,2.53-.75,2.53-1.84S113.48,104.24,111.44,104.24Z"/><path class="cls-1" d="M122.49,114.29a24.25,24.25,0,0,1-2.7-.28,2.2,2.2,0,0,0-.89.22l-.5-3.38.55-.13c.3.74,1.12,1.62,3.27,1.64,1.84,0,2.39-.7,2.39-1.51,0-.61-.5-1.07-1.39-1.42l-1.87-.73a3.4,3.4,0,0,1-2.57-3.29c0-2.23,1.94-3.24,4.1-3.24a21.16,21.16,0,0,1,2.37.25,1.8,1.8,0,0,0,.79-.14l.4,2.92-.56.11a3.07,3.07,0,0,0-2.83-1.24c-1.46,0-1.82.63-1.82,1.17s.35.88,1.26,1.23l2,.76a3.56,3.56,0,0,1,2.62,3.47C127.09,113,125.38,114.29,122.49,114.29Z"/><path class="cls-1" d="M132.64,114H129v-.46c.38,0,.63-.18.63-.66v-9.35c0-.48-.23-.66-.63-.66v-.45h3.69v.45a.57.57,0,0,0-.63.66v9.35c0,.46.23.66.63.66Z"/><path class="cls-1" d="M145.09,104.82l-.39.14c-.19-.43-.5-.59-1.24-.59h-2.59v8.5a.59.59,0,0,0,.67.68V114h-3.73v-.46a.6.6,0,0,0,.67-.68v-8.5H136c-.8,0-1.08.15-1.27.59l-.44-.14.53-2.47a5.15,5.15,0,0,0,1,.08h7.87a5.65,5.65,0,0,0,.89-.08Z"/><path class="cls-1" d="M157.05,102.88c-.38,0-.65.21-1,.76l-3.23,5.61v3.64c0,.48.23.66.63.66V114h-3.67v-.46c.41,0,.63-.2.63-.66v-3.64l-3.2-5.58c-.33-.58-.54-.79-1-.79v-.45h3.86v.45a.3.3,0,0,0-.33.3.85.85,0,0,0,.11.3l1.84,3.53h0l1.82-3.42a1,1,0,0,0,.15-.41c0-.15-.05-.3-.31-.3v-.45h3.59Z"/><path class="cls-1" d="M168.92,114.29a6.06,6.06,0,1,1,5.88-6.07A5.67,5.67,0,0,1,168.92,114.29Zm0-10.1c-1.77,0-3.31,1.37-3.31,4s1.5,4.07,3.31,4.07,3.35-1.4,3.35-4.05S170.73,104.19,168.92,104.19Z"/><path class="cls-1" d="M185.47,104.8l-.39.13a1.06,1.06,0,0,0-1.12-.56h-4.12v2.43h3.86c.44,0,.61-.25.61-.53h.43v3h-.43c0-.32-.17-.56-.63-.56h-3.84v4.06c0,.53.27.75.66.75V114h-3.72v-.46c.38,0,.63-.25.63-.75v-9.23a.61.61,0,0,0-.63-.69v-.45h7.1a6.8,6.8,0,0,0,1.07-.08Z"/><path class="cls-1" d="M202.1,104.82l-.4.14c-.18-.43-.49-.59-1.24-.59h-2.58v8.5c0,.51.26.68.66.68V114h-3.72v-.46c.4,0,.66-.18.66-.68v-8.5H193c-.79,0-1.07.15-1.27.59l-.43-.14.53-2.47a5,5,0,0,0,1,.08h7.88a5.76,5.76,0,0,0,.89-.08Z"/><path class="cls-1" d="M212.51,111.5l-.59,2.59A7.18,7.18,0,0,0,211,114h-7.25v-.46c.41,0,.63-.23.63-.68v-9.3c0-.44-.23-.69-.63-.69v-.45H211a5.87,5.87,0,0,0,.89-.08l.53,2.48-.38.13a.94.94,0,0,0-1-.59h-4.25v2.28h3.86c.43,0,.61-.25.61-.53h.43v3h-.43c0-.35-.17-.56-.61-.56h-3.86v3.47H211a1,1,0,0,0,1.09-.69Z"/><path class="cls-1" d="M224.3,114h-4v-.46c.28,0,.38-.12.38-.27a.85.85,0,0,0-.15-.36l-1.57-2.8h0l-1.52,2.82a.79.79,0,0,0-.13.33c0,.15.08.28.33.28V114h-3.69v-.46c.43,0,.7-.13,1-.7l2.78-4.64-2.78-4.52c-.38-.61-.58-.81-1-.81v-.45h4v.45c-.26,0-.34.1-.34.25a1.25,1.25,0,0,0,.18.41l1.64,2.83h0l1.56-2.89a1.12,1.12,0,0,0,.11-.35c0-.15-.1-.25-.33-.25v-.45h3.62v.45c-.43,0-.66.15-1,.76l-2.78,4.67,2.81,4.61a1,1,0,0,0,1,.63Z"/><path class="cls-1" d="M237.08,114H233.4v-.46c.33,0,.43-.15.43-.37a1.45,1.45,0,0,0-.09-.41l-.23-.68a12.14,12.14,0,0,1-2.23.2,14.64,14.64,0,0,1-2.22-.2l-.23.76a2.33,2.33,0,0,0-.05.38c0,.19.12.27.45.32V114h-3.46v-.46c.28,0,.53-.13.76-.8l3.11-9.06a1.72,1.72,0,0,0,.12-.46c0-.19-.07-.35-.29-.35v-.45h3.86v.45a.28.28,0,0,0-.32.28,2.58,2.58,0,0,0,.15.55l3.2,9.09c.19.55.44.75.72.75Zm-5.85-9h0l-1.54,5.18a8.79,8.79,0,0,0,1.65.17,8,8,0,0,0,1.59-.17Z"/><path class="cls-1" d="M242.6,114.29a23.68,23.68,0,0,1-2.69-.28,2.25,2.25,0,0,0-.9.22l-.49-3.38.54-.13c.3.74,1.13,1.62,3.28,1.64,1.83,0,2.38-.7,2.38-1.51,0-.61-.5-1.07-1.39-1.42l-1.87-.73a3.4,3.4,0,0,1-2.56-3.29c0-2.23,1.93-3.24,4.1-3.24a21.19,21.19,0,0,1,2.36.25,1.85,1.85,0,0,0,.8-.14l.4,2.92-.57.11a3.06,3.06,0,0,0-2.82-1.24c-1.46,0-1.82.63-1.82,1.17s.34.88,1.25,1.23l2,.76a3.57,3.57,0,0,1,2.61,3.47C247.2,113,245.5,114.29,242.6,114.29Z"/><path class="cls-1" d="M264.41,114h-3.69v-.46c.33,0,.43-.15.43-.37a1.4,1.4,0,0,0-.08-.41l-.23-.68a12.22,12.22,0,0,1-2.23.2,14.64,14.64,0,0,1-2.22-.2l-.23.76a2.33,2.33,0,0,0-.05.38c0,.19.12.27.45.32V114H253.1v-.46c.28,0,.53-.13.76-.8l3.11-9.06a1.62,1.62,0,0,0,.11-.46c0-.19-.06-.35-.28-.35v-.45h3.86v.45a.28.28,0,0,0-.32.28,2.58,2.58,0,0,0,.15.55l3.19,9.09c.2.55.45.75.73.75Zm-5.85-9h0L257,110.19a8.79,8.79,0,0,0,1.65.17,8,8,0,0,0,1.59-.17Z"/><path class="cls-1" d="M274.61,104.82l-.39.14c-.18-.43-.5-.59-1.24-.59H270.4v8.5c0,.51.26.68.66.68V114h-3.72v-.46a.59.59,0,0,0,.66-.68v-8.5h-2.5c-.79,0-1.07.15-1.27.59l-.43-.14.53-2.47a5,5,0,0,0,1,.08h7.87a5.65,5.65,0,0,0,.89-.08Z"/><path class="cls-1" d="M285,114.14c-1.49,0-3.31-.06-4.3-.13v-.46a.56.56,0,0,0,.63-.61v-9.4c0-.53-.23-.66-.63-.66v-.45c1.11-.05,2.63-.11,4.43-.11,4.37,0,6.14,2.05,6.14,5.77C291.28,111.5,289.64,114.14,285,114.14Zm0-9.89c-.5,0-.93,0-1.24,0v7.89c.31,0,.79,0,1.24,0,2.48,0,3.82-1.62,3.82-4.14A3.48,3.48,0,0,0,285,104.25Z"/><path class="cls-1" d="M303.68,114H300v-.46c.33,0,.43-.15.43-.37a1.4,1.4,0,0,0-.08-.41l-.23-.68a12.26,12.26,0,0,1-2.24.2,14.62,14.62,0,0,1-2.21-.2l-.23.76a1.58,1.58,0,0,0-.05.38c0,.19.11.27.44.32V114h-3.45v-.46c.28,0,.53-.13.76-.8l3.11-9.06a2.07,2.07,0,0,0,.11-.46c0-.19-.06-.35-.28-.35v-.45h3.86v.45a.28.28,0,0,0-.32.28,2.58,2.58,0,0,0,.15.55L303,112.8c.2.55.45.75.73.75Zm-5.85-9h0l-1.54,5.18a8.89,8.89,0,0,0,1.66.17,8.07,8.07,0,0,0,1.59-.17Z"/><path class="cls-1" d="M314.08,111.53l-.61,2.56a8.92,8.92,0,0,0-1.08-.08H305.3v-.46c.41,0,.62-.2.62-.68v-9.33a.58.58,0,0,0-.62-.66v-.45H309v.45a.63.63,0,0,0-.66.71v8.47h4.26a1,1,0,0,0,1.06-.65Z"/><path class="cls-1" d="M324.63,111.53l-.61,2.56a8.92,8.92,0,0,0-1.08-.08h-7.1v-.46c.42,0,.63-.2.63-.68v-9.33a.58.58,0,0,0-.63-.66v-.45h3.73v.45a.64.64,0,0,0-.67.71v8.47h4.27a1,1,0,0,0,1.06-.65Z"/><path class="cls-1" d="M337.11,114h-3.69v-.46c.33,0,.43-.15.43-.37a1.4,1.4,0,0,0-.08-.41l-.23-.68a12.22,12.22,0,0,1-2.23.2,14.64,14.64,0,0,1-2.22-.2l-.23.76a2.33,2.33,0,0,0-.05.38c0,.19.11.27.44.32V114H325.8v-.46c.28,0,.53-.13.76-.8l3.11-9.06a2.07,2.07,0,0,0,.11-.46c0-.19-.06-.35-.28-.35v-.45h3.86v.45a.28.28,0,0,0-.32.28,2.58,2.58,0,0,0,.15.55l3.19,9.09c.2.55.45.75.73.75Zm-5.85-9h0l-1.53,5.18a8.79,8.79,0,0,0,1.65.17,8.07,8.07,0,0,0,1.59-.17Z"/><path class="cls-1" d="M342.63,114.29a24.25,24.25,0,0,1-2.7-.28,2.2,2.2,0,0,0-.89.22l-.5-3.38.55-.13c.3.74,1.13,1.62,3.28,1.64,1.83,0,2.38-.7,2.38-1.51,0-.61-.5-1.07-1.39-1.42l-1.87-.73a3.39,3.39,0,0,1-2.56-3.29c0-2.23,1.93-3.24,4.1-3.24a21.19,21.19,0,0,1,2.36.25,1.88,1.88,0,0,0,.8-.14l.39,2.92-.56.11a3.07,3.07,0,0,0-2.83-1.24c-1.45,0-1.82.63-1.82,1.17s.35.88,1.26,1.23l2,.76a3.57,3.57,0,0,1,2.61,3.47C347.23,113,345.53,114.29,342.63,114.29Z"/><path class="cls-1" d="M205.2,37.35l-1.23.34c-.61-1.23-1.39-1.9-3.34-1.9H182.24V85.63c0,2,.9,2.73,2.12,2.73l.25,1H172.68l.24-1c1.18,0,2.18-.78,2.18-2.73V35.79H156.77c-1.9,0-3,.78-3.4,1.9l-1.23-.34,1.79-7.64a10.56,10.56,0,0,0,2.95.28H201a10,10,0,0,0,2.46-.28Zm-6.59,44.89c-5.09,0-11.44-.18-13-.36V80.75a1.89,1.89,0,0,0,2-1.91V43.25a1.87,1.87,0,0,0-2-2V40.09c2-.18,8.49-.42,12.9-.42,9.44,0,14.53,5,14.53,20.12C213,75.25,208.78,82.24,198.61,82.24Zm1.28-36.42c-.85,0-4.44,0-4.81.06V76.09c.37.06,4,.06,4.45.06,3.92,0,5.76-4.6,5.76-16.36C205.29,48.74,203,45.82,199.89,45.82ZM171.8,41.33V40.14s-4.84,0-8.7,0a5.33,5.33,0,0,0-.85,3.38V73.28c0,2.39-1.71,3.53-3.74,3.53s-3.67-1-3.67-3.53V43.55a2,2,0,0,1,2-2.27V40.14h-8.22a4.87,4.87,0,0,0-1.22,3.41V74a9.14,9.14,0,0,1-.43,3.46,14.66,14.66,0,0,0,11.52,5.44,131.93,131.93,0,0,0,13.29-1V80.8a1.89,1.89,0,0,1-2-1.91V43.31A1.88,1.88,0,0,1,171.8,41.33Z"/></svg>